<?xml version="1.0" standalone="no"?>
<!DOCTYPE svg PUBLIC "-//W3C//DTD SVG 20010904//EN"
 "http://www.w3.org/TR/2001/REC-SVG-20010904/DTD/svg10.dtd">
<svg version="1.0" xmlns="http://www.w3.org/2000/svg"
 width="647.000000pt" height="647.000000pt" viewBox="0 0 647.000000 647.000000"
 preserveAspectRatio="xMidYMid meet">
<metadata>
Created by potrace 1.11, written by Peter Selinger 2001-2013
</metadata>
<g transform="translate(0.000000,647.000000) scale(0.100000,-0.100000)"
fill="#000000" stroke="none">
<path d="M4975 6454 c-183 -45 -351 -176 -440 -345 -112 -213 -99 -477 32
-682 18 -28 18 -28 -13 -55 -61 -53 -168 -148 -208 -183 -23 -20 -68 -60 -101
-89 -33 -29 -76 -67 -95 -84 -19 -17 -88 -78 -153 -135 l-117 -103 -93 88
c-51 49 -127 112 -168 141 -72 50 -225 133 -271 148 -13 4 -25 8 -28 9 -39 16
-151 47 -197 55 -32 6 -69 14 -83 17 -14 3 -84 7 -156 8 -305 7 -557 -68 -825
-247 l-26 -17 -114 132 c-62 73 -116 135 -119 138 -3 3 -32 36 -63 73 l-58 69
21 31 c55 82 90 194 90 285 0 97 -46 231 -100 292 -12 14 -27 32 -34 41 -19
27 -104 87 -154 109 -216 96 -473 25 -601 -167 -57 -84 -82 -161 -86 -258 -10
-244 152 -449 396 -501 77 -16 228 4 299 41 16 8 31 15 34 15 2 0 55 -60 118
-132 62 -73 124 -146 138 -162 14 -17 42 -49 63 -72 l38 -43 -68 -79 c-184
-212 -292 -447 -330 -713 -10 -69 -10 -307 0 -381 18 -134 72 -297 140 -428
64 -122 136 -218 242 -325 146 -146 320 -255 510 -319 86 -30 92 -31 175 -47
30 -6 62 -13 70 -14 8 -2 23 -4 33 -4 12 -1 17 -9 16 -28 -1 -26 1 -61 17
-267 3 -43 7 -102 9 -130 2 -28 6 -94 10 -146 3 -52 8 -122 10 -155 2 -33 7
-94 10 -135 12 -161 15 -208 20 -295 3 -49 8 -104 10 -121 5 -30 4 -31 -57
-49 -174 -52 -309 -167 -388 -330 -48 -100 -60 -146 -64 -242 -10 -287 157
-532 428 -631 62 -23 87 -26 201 -26 137 -1 198 13 300 67 140 75 258 217 306
367 31 95 35 244 9 344 -60 236 -246 414 -489 465 -67 15 -75 18 -76 41 -2 14
-6 77 -10 140 -4 63 -9 133 -10 155 -2 22 -6 83 -10 135 -3 52 -8 118 -10 145
-2 28 -7 91 -10 140 -6 89 -13 187 -20 275 -2 25 -6 96 -10 157 -6 105 -5 113
12 114 294 9 603 121 818 297 251 204 441 534 480 832 3 25 8 61 10 80 7 48 7
228 0 276 -32 221 -84 377 -182 547 l-27 49 46 41 c25 23 74 67 109 97 35 30
70 62 79 70 8 8 50 45 92 81 42 37 91 80 110 97 18 16 91 80 161 142 l128 113
52 -36 c77 -52 125 -73 217 -97 373 -95 747 138 825 516 33 161 5 339 -77 483
-52 91 -179 209 -279 259 -46 23 -93 42 -103 42 -9 0 -27 5 -39 12 -34 18
-251 19 -322 2z"/>
<path d="M4834 3408 c-107 -36 -180 -97 -233 -197 -65 -123 -64 -265 3 -387
34 -61 49 -80 106 -126 93 -75 231 -104 351 -74 123 32 213 106 271 223 29 60
33 78 35 158 2 105 -13 164 -64 242 -100 152 -296 219 -469 161z"/>
<path d="M879 3177 c-96 -40 -161 -106 -196 -195 -28 -73 -24 -202 8 -272 32
-68 96 -132 169 -168 48 -23 67 -27 145 -27 76 0 98 4 145 26 70 33 131 92
166 160 22 43 28 71 32 141 4 81 2 91 -27 155 -61 129 -158 194 -301 200 -72
3 -94 0 -141 -20z"/>
</g>
</svg>
